<svg width="17" height="17" viewBox="0 0 17 17" fill="none" xmlns="http://www.w3.org/2000/svg">
<path d="M15.2212 16.0059C15.3642 16.0097 15.5062 15.9816 15.6371 15.9238C15.7679 15.8661 15.8843 15.78 15.9778 15.6718C16.0714 15.5636 16.1398 15.4359 16.178 15.2981C16.2163 15.1603 16.2235 15.0157 16.1991 14.8748C15.4763 11.2794 13.7238 7.97168 11.1549 5.35444C8.49106 2.63047 5.20944 0.874292 1.75068 0.100258C1.61017 0.0714598 1.465 0.0745118 1.32582 0.109189C1.18665 0.143866 1.05702 0.209287 0.94645 0.300644C0.835882 0.392001 0.747189 0.506972 0.68689 0.637108C0.626591 0.767244 0.596217 0.909239 0.598002 1.05266C0.59832 1.29063 0.679466 1.52144 0.828143 1.70725C0.976819 1.89306 1.18421 2.02286 1.41631 2.07537C4.57726 2.80533 7.46175 4.42853 9.72619 6.75162C11.9981 9.06739 13.5565 11.9874 14.2158 15.1638C14.263 15.3974 14.3882 15.6081 14.5709 15.7611C14.7536 15.9141 14.9829 16.0005 15.2212 16.0059ZM9.04618 15.937C9.68606 15.9453 10.1711 15.3567 9.97877 14.7452C9.36676 12.7912 8.30011 11.0102 6.86638 9.54831C5.43669 8.0825 3.67995 6.97641 1.74019 6.32071C1.13433 6.11595 0.535056 6.58776 0.527928 7.22648L0.527454 7.2689C0.529319 7.49026 0.600219 7.70551 0.730266 7.88464C0.860315 8.06378 1.04303 8.19786 1.25292 8.26819C2.83379 8.82944 4.26468 9.74621 5.43528 10.9478C6.61085 12.1449 7.49515 13.5964 8.01972 15.1901C8.16106 15.6207 8.54888 15.9314 9.00259 15.9353L9.04618 15.937ZM3.42974 15.8743C3.98478 15.8817 4.45063 15.4308 4.31755 14.8942C4.14921 14.196 3.79523 13.5563 3.29306 13.0428C2.79089 12.5293 2.15922 12.1611 1.46492 11.9772C0.932631 11.8334 0.471434 12.289 0.465253 12.8429L0.444141 14.8404C0.441348 15.1054 0.543851 15.3606 0.729133 15.5501C0.914414 15.7396 1.16732 15.8477 1.4323 15.8508L3.42974 15.8743Z" fill="black"/>
</svg>
