<svg width="32" height="24" viewBox="0 0 32 24" fill="none" xmlns="http://www.w3.org/2000/svg">
<path d="M0.0999999 3.11C0.301636 2.22649 0.79731 1.43763 1.50584 0.872617C2.21438 0.307607 3.09377 -6.09889e-05 4 9.06828e-09H28C28.9062 -6.09889e-05 29.7856 0.307607 30.4942 0.872617C31.2027 1.43763 31.6984 2.22649 31.9 3.11L16 12.8267L0.0999999 3.11ZM0 5.39333V19.6017L11.6067 12.485L0 5.39333ZM13.5233 13.66L0.383333 21.7133C0.707956 22.3977 1.22015 22.9759 1.86037 23.3807C2.50059 23.7854 3.24255 24.0002 4 24H28C28.7577 24.0003 29.4998 23.7853 30.1401 23.3802C30.7804 22.9751 31.2924 22.3965 31.6167 21.7117L18.4767 13.6583L16 15.1717L13.5233 13.6583V13.66ZM20.395 12.4883L32 19.6V5.39333L20.395 12.485V12.4883Z" fill="black"/>
</svg>
