<svg width="24" height="22" viewBox="0 0 24 22" fill="none" xmlns="http://www.w3.org/2000/svg">
<path d="M19.5 2.37378C19.5 1.77704 19.7371 1.20475 20.159 0.782789C20.581 0.360832 21.1533 0.123779 21.75 0.123779C22.3467 0.123779 22.919 0.360832 23.341 0.782789C23.7629 1.20475 24 1.77704 24 2.37378V18.8738C24 19.4705 23.7629 20.0428 23.341 20.4648C22.919 20.8867 22.3467 21.1238 21.75 21.1238C21.1533 21.1238 20.581 20.8867 20.159 20.4648C19.7371 20.0428 19.5 19.4705 19.5 18.8738V2.37378ZM18 3.46003C14.9 4.88503 11.1912 5.68128 7.5 5.94378V15.2988C8.045 15.33 8.59 15.3725 9.1325 15.4263C12.2113 15.7325 15.19 16.4288 18 17.7663V3.46003ZM6 15.2213V6.02503C4.98 6.06503 3.9025 6.08878 2.9875 6.10378C2.19279 6.11492 1.43429 6.43787 0.875454 7.00302C0.316623 7.56816 0.00221702 8.33025 0 9.12503V12.125C0.00226214 12.9196 0.317467 13.6813 0.877343 14.2452C1.43722 14.8091 2.19669 15.1296 2.99125 15.1375C3.99452 15.1515 4.99754 15.1799 6 15.2225V15.2213ZM8.085 16.8425C8.5125 16.8738 8.93875 16.9125 9.36 16.96L9.74 19.495C9.78145 19.712 9.77443 19.9355 9.71944 20.1494C9.66445 20.3633 9.56284 20.5625 9.4219 20.7326C9.28096 20.9027 9.10416 21.0395 8.90416 21.1333C8.70415 21.227 8.4859 21.2755 8.265 21.275H7.44375C7.15198 21.2752 6.86651 21.1902 6.62229 21.0306C6.37807 20.871 6.1857 20.6436 6.06875 20.3763L4.1 16.6563C4.9462 16.6777 5.7921 16.7098 6.6375 16.7525C7.12875 16.7775 7.6125 16.8075 8.0875 16.8425H8.085Z" fill="black"/>
</svg>
