<svg width="26" height="26" viewBox="0 0 26 26" fill="none" xmlns="http://www.w3.org/2000/svg">
<path d="M25.5 13C25.5 16.3152 24.183 19.4946 21.8388 21.8388C19.4946 24.183 16.3152 25.5 13 25.5C9.68479 25.5 6.50537 24.183 4.16116 21.8388C1.81696 19.4946 0.5 16.3152 0.5 13C0.5 9.68479 1.81696 6.50537 4.16116 4.16116C6.50537 1.81696 9.68479 0.5 13 0.5C16.3152 0.5 19.4946 1.81696 21.8388 4.16116C24.183 6.50537 25.5 9.68479 25.5 13ZM13.4487 9.72875C12.2325 10.235 9.80125 11.2812 6.1575 12.8687C5.5675 13.1037 5.25625 13.335 5.2275 13.56C5.18125 13.9387 5.6575 14.0887 6.30625 14.2937L6.58 14.38C7.2175 14.5875 8.07625 14.83 8.5225 14.8387C8.92875 14.8487 9.38 14.6825 9.87875 14.3387C13.2825 12.0412 15.0412 10.88 15.15 10.855C15.2287 10.8362 15.3375 10.8137 15.4087 10.88C15.4837 10.9437 15.475 11.0675 15.4675 11.1C15.42 11.3012 13.55 13.0387 12.5825 13.9387C12.2812 14.22 12.0675 14.4187 12.0237 14.4637C11.9274 14.5624 11.8294 14.6595 11.73 14.755C11.1362 15.3262 10.6925 15.755 11.7525 16.455C12.265 16.7925 12.6737 17.0687 13.0812 17.3462C13.525 17.65 13.9687 17.9512 14.5437 18.33C14.6887 18.4237 14.83 18.525 14.9662 18.6212C15.4825 18.9912 15.95 19.3212 16.5237 19.2687C16.8575 19.2375 17.2025 18.925 17.3775 17.9875C17.7925 15.7737 18.6062 10.9787 18.7937 9.00125C18.8062 8.8375 18.7987 8.6725 18.7737 8.51C18.7591 8.37819 18.6953 8.25676 18.595 8.17C18.4529 8.07213 18.2837 8.02141 18.1112 8.025C17.6425 8.0325 16.9187 8.28375 13.4487 9.72875Z" fill="black"/>
</svg>
