<svg width="33" height="24" viewBox="0 0 33 24" fill="none" xmlns="http://www.w3.org/2000/svg">
<path d="M16.606 0.800007H16.7871C18.4732 0.805007 27.0115 0.865007 29.3126 1.46834C30.0086 1.65252 30.6429 2.01178 31.152 2.51018C31.661 3.00857 32.027 3.62863 32.2133 4.30834C32.4218 5.06834 32.567 6.07501 32.6643 7.11334L32.6848 7.32167L32.731 7.84167L32.7481 8.04834C32.8388 9.35155 32.889 10.6572 32.8984 11.9633V12.1133C32.8879 13.4881 32.8321 14.8621 32.731 16.2333L32.7139 16.4433L32.6968 16.65C32.5943 17.795 32.4406 18.9317 32.2133 19.7667C32.0276 20.4467 31.6619 21.0671 31.1527 21.5656C30.6436 22.0641 30.009 22.4231 29.3126 22.6067C26.9346 23.23 17.8975 23.2733 16.6436 23.2767H16.3532C15.7211 23.2767 13.1005 23.265 10.3535 23.1733L10.005 23.16L9.82564 23.1533L9.47543 23.1383L9.12522 23.125C6.84972 23.0267 4.68356 22.8683 3.68418 22.605C2.98811 22.4214 2.35373 22.0626 1.84462 21.5644C1.33551 21.0663 0.969551 20.4463 0.783431 19.7667C0.556222 18.9333 0.404181 17.795 0.301681 16.65L0.284597 16.4417L0.267514 16.2333C0.166581 14.8782 0.110746 13.5203 0.100098 12.1617V11.915C0.105223 11.485 0.120597 9.99834 0.231639 8.35834L0.247014 8.15334L0.252139 8.04834L0.269223 7.84167L0.313639 7.32001L0.334139 7.11334C0.433222 6.07501 0.578431 5.06667 0.785139 4.30834C0.971146 3.62821 1.33724 3.00776 1.84669 2.50928C2.35613 2.0108 2.99101 1.65181 3.6876 1.46834C4.68697 1.20834 6.85314 1.04834 9.12864 0.94834L9.47714 0.935007L9.82906 0.92334L10.0067 0.916673L10.3569 0.90334C12.3078 0.841674 14.2588 0.80834 16.2114 0.801674H16.6077V0.79834L16.606 0.800007ZM13.2201 7.21667V16.8533L21.743 12.0367L13.2201 7.21667Z" fill="black"/>
</svg>
