<svg width="501" height="604" viewBox="0 0 501 604" fill="none" xmlns="http://www.w3.org/2000/svg">
<path fill-rule="evenodd" clip-rule="evenodd" d="M501.376 7.47983V99.3684C490.927 103.355 480.939 108.339 471.414 114.287C470.836 114.648 470.257 114.998 469.679 115.347C469.1 115.697 468.522 116.046 467.944 116.408C465.486 118.143 463.027 119.926 460.569 121.806C444.566 133.953 428.274 149.956 411.837 169.622C411.909 169.622 411.97 169.61 412.03 169.598C412.09 169.586 412.15 169.574 412.222 169.574C408.993 173.72 404.317 180.564 400.365 189.674C397.858 195.507 395.593 202.303 394.243 210.016C389.857 234.454 396.605 254.072 400.365 262.893L400.509 263.182C402.534 258.459 405.522 250.457 407.113 240.045C408.318 231.996 408.656 222.5 407.065 212.137C409.909 196.423 416.994 184.662 422.489 177.576L425.478 173.72C439.119 157.861 452.616 144.702 465.727 134.339C465.751 134.315 465.787 134.291 465.823 134.266C465.859 134.242 465.895 134.218 465.919 134.194C481.44 179.118 465.727 224.717 452.519 239.13C440.614 252.048 426.731 259.326 414.343 262.508C414.126 262.556 413.91 262.592 413.693 262.628C413.476 262.664 413.259 262.7 413.042 262.749C411.5 263.134 409.957 263.423 408.463 263.664C407.957 263.707 407.487 263.786 406.99 263.869C406.919 263.881 406.848 263.893 406.776 263.905C404.847 264.195 402.919 264.339 401.136 264.387H400.992V264.436H400.75H400.365H399.979H399.738V264.387H399.594C397.81 264.339 395.882 264.146 393.954 263.905C393.424 263.857 392.845 263.761 392.267 263.664C390.773 263.423 389.23 263.134 387.688 262.749C387.471 262.7 387.254 262.664 387.037 262.628C386.82 262.592 386.603 262.556 386.386 262.508C373.998 259.374 360.068 252.096 348.21 239.13C334.955 224.717 319.241 179.118 334.81 134.194C334.834 134.218 334.87 134.242 334.907 134.266C334.943 134.291 334.979 134.315 335.003 134.339C336.449 130.145 338.136 126 340.161 121.854C344.258 113.371 349.56 105.032 356.405 97.0304L356.549 96.8858C357.851 95.3749 359.153 93.8314 360.488 92.2488C369.291 81.8149 379.528 69.6813 400.413 53.9861C403.787 51.4796 407.451 48.8286 411.451 46.0811C411.427 46.057 411.403 46.0449 411.379 46.0328C411.355 46.0208 411.331 46.0087 411.307 45.9846C412.247 45.336 413.209 44.6874 414.194 44.0241C414.672 43.7016 415.156 43.3755 415.645 43.0443C441.099 26.3562 469.762 14.4823 501.376 7.47983ZM8.38708 292.923C8.38708 292.875 8.38704 292.875 8.33883 292.826C8.38704 292.826 8.38708 292.875 8.38708 292.923ZM230.212 87.5346C217.005 87.4864 153.33 89.1735 96.7892 125.566C75.6768 138.339 55.2876 155.789 38.5615 179.697C17.4973 209.871 9.01353 240.768 5.49479 263.664C5.36738 263.027 5.23066 262.381 5.09284 261.729C4.91783 260.902 4.74104 260.066 4.57924 259.23L3.85609 255.325C3.73561 254.627 3.61509 253.916 3.49458 253.205C3.37402 252.494 3.25347 251.783 3.13295 251.084C3.08474 250.939 3.03674 250.794 3.03674 250.65L2.45834 246.745L2.0244 243.564C1.92799 243.034 1.83165 242.456 1.78345 241.925C1.64235 240.655 1.50112 239.431 1.36001 238.209L1.3495 238.117C1.3013 237.467 1.24104 236.828 1.18078 236.189C1.12051 235.551 1.06025 234.912 1.01205 234.261C1.01205 233.866 0.972216 233.511 0.928684 233.123L0.915848 233.008C0.867646 232.406 0.819447 231.815 0.771248 231.225C0.723049 230.634 0.67485 230.044 0.626648 229.441C0.482042 227.513 0.385603 225.585 0.2892 223.657C0.265099 223.151 0.240962 222.657 0.216826 222.163C0.19269 221.669 0.168554 221.174 0.144453 220.668C0.0480489 217.824 0 214.98 0 212.088V211.896C0 208.136 0.048143 204.376 0.240951 200.664C0.72297 190.205 1.92797 179.986 3.80784 170.104C4.09662 168.516 4.43352 166.928 4.77043 165.34L4.77194 165.333C8.24248 148.992 13.593 133.519 20.8233 118.962C20.9671 118.77 21.063 118.579 21.159 118.387L21.1604 118.384C25.1612 110.431 29.7887 102.767 34.8981 95.3434C36.9708 92.3549 39.0915 89.3663 41.357 86.4742C46.37 79.9669 51.7687 73.7007 57.6975 67.6754C60.2522 65.0725 62.9034 62.5179 65.6027 60.0114C68.302 57.5049 71.0014 55.0948 73.7971 52.7811C79.0029 48.3947 84.4013 44.2975 89.8964 40.4414C122.674 17.6419 160.753 4.43456 203.557 0.964023C211.124 0.337398 218.836 0 226.742 0H226.983C288.247 0 341.366 14.4605 385.037 43.0924C385.522 43.421 386.002 43.7445 386.477 44.0646C387.465 44.7306 388.431 45.3817 389.375 46.0328C389.351 46.0569 389.327 46.069 389.302 46.081C389.278 46.093 389.254 46.1051 389.23 46.1292C369.382 61.4601 359.117 73.6286 350.552 83.781L350.476 83.8714C349.174 85.462 347.873 87.0044 346.571 88.4987L346.09 89.0289L345.945 89.2217C339.1 97.2714 333.605 105.803 329.267 114.479C329.267 114.431 329.219 114.431 329.219 114.431C318.566 107.779 307.335 102.333 295.526 98.1391C295.333 98.0427 295.188 97.9944 294.996 97.9462C291.284 96.5966 287.476 95.3915 283.62 94.3311C283.355 94.2588 283.09 94.1985 282.824 94.1383C282.559 94.0781 282.294 94.0178 282.029 93.9455C278.511 93.0297 274.944 92.1139 271.328 91.3908C270.607 91.234 269.865 91.118 269.129 91.0029C268.734 90.9412 268.341 90.8798 267.954 90.8124C264.869 90.234 261.784 89.7038 258.603 89.2699C257.038 89.0515 255.445 88.9156 253.845 88.779C253.327 88.7348 252.808 88.6905 252.289 88.6433C251.68 88.5799 251.074 88.5131 250.47 88.4465C248.779 88.26 247.1 88.0749 245.396 87.9684C240.913 87.6792 236.382 87.5346 231.755 87.5346H231.707H230.212ZM295.252 483.098C305.731 492.645 317.308 503.174 341.848 525.353C347.921 531.281 351.922 538.512 354.091 546.224C355.971 553.117 356.26 560.299 354.911 567.24C353.416 575.001 349.946 582.375 344.451 588.497C329.074 605.657 302.419 608.404 283.427 594.378L180.179 497.492H180.13C174.751 492.608 169.517 487.811 164.425 483.098C106.595 429.574 67.2013 386.981 44.2976 353.224C44.2735 353.175 44.2493 353.139 44.2252 353.103C44.201 353.067 44.1769 353.031 44.1528 352.982C42.3211 350.235 40.5377 347.487 38.8025 344.692L37.5009 342.523C36.1513 340.354 34.8498 338.185 33.5966 335.967C33.1628 335.293 32.7773 334.57 32.3917 333.847L32.3915 333.846C31.1383 331.629 29.9332 329.364 28.7281 327.098C28.3907 326.471 28.1015 325.893 27.8123 325.315C26.559 322.856 25.354 320.446 24.1972 317.988C23.9561 317.554 23.7633 317.12 23.5705 316.686C22.3173 314.084 21.1123 311.433 20.0036 308.781C19.9313 308.637 19.8711 308.492 19.8109 308.348C19.7507 308.203 19.6905 308.058 19.6182 307.914C18.4132 305.07 17.2562 302.274 16.1958 299.43C16.118 299.314 16.0717 299.166 16.0314 299.037C16.0217 299.006 16.0124 298.976 16.0031 298.948C14.8944 295.96 13.8338 292.971 12.8216 289.983C12.8216 289.958 12.8095 289.934 12.7975 289.91C12.7854 289.886 12.7733 289.862 12.7733 289.838C11.7129 286.705 10.7489 283.62 9.83308 280.487C13.0626 257.302 21.4016 225.055 43.3335 193.627C69.4589 156.222 104.695 134.483 137.713 121.854C137.458 122.075 137.204 122.29 136.952 122.502C136.487 122.894 136.029 123.28 135.592 123.686C131.109 127.687 127.108 131.929 123.397 136.315C121.179 138.966 119.059 141.714 117.082 144.558C103.297 164.272 96.5482 187.505 96.5482 214.836V214.884C96.5482 216.38 96.6311 217.904 96.7132 219.414C96.7395 219.898 96.7658 220.381 96.7892 220.861C97.3194 234.888 99.8261 248.963 104.261 262.941V262.99C105.128 265.737 106.092 268.436 107.104 271.184C107.297 271.618 107.49 272.052 107.635 272.485C108.55 274.847 109.466 277.209 110.479 279.571C111.684 282.415 112.985 285.259 114.335 288.055C114.335 288.125 114.361 288.17 114.393 288.227C114.405 288.247 114.418 288.27 114.431 288.296C116.215 291.911 118.095 295.478 120.119 299.093C120.167 299.165 120.215 299.249 120.264 299.334C120.312 299.418 120.36 299.503 120.408 299.575C122.433 303.142 124.602 306.709 126.867 310.276C128.169 312.348 129.615 314.469 131.061 316.59C153.089 348.789 190.687 388.748 242.937 435.601C268.934 459.117 280.369 469.537 291.385 479.575C292.672 480.748 293.953 481.915 295.252 483.098Z" fill="url(#paint0_linear_189_191)"/>
<defs>
<linearGradient id="paint0_linear_189_191" x1="250.688" y1="0" x2="250.688" y2="603.355" gradientUnits="userSpaceOnUse">
<stop stop-color="#FF000F"/>
<stop offset="1" stop-color="#BB000B"/>
</linearGradient>
</defs>
</svg>
