<svg width="503" height="484" viewBox="0 0 503 484" fill="none" xmlns="http://www.w3.org/2000/svg">
<path fill-rule="evenodd" clip-rule="evenodd" d="M295.773 483.952C294.473 482.767 293.19 481.598 291.901 480.424C280.865 470.367 269.411 459.93 243.367 436.37C191.024 389.435 153.36 349.405 131.293 317.15L131.292 317.149C129.844 315.025 128.395 312.9 127.092 310.824C124.822 307.251 122.649 303.677 120.621 300.104C120.573 300.032 120.524 299.947 120.476 299.863C120.428 299.778 120.38 299.694 120.331 299.621C118.303 296 116.42 292.427 114.633 288.805C114.621 288.779 114.608 288.757 114.596 288.736C114.563 288.679 114.537 288.634 114.537 288.564C113.185 285.763 111.881 282.914 110.674 280.065C109.66 277.699 108.742 275.333 107.825 272.967C107.68 272.532 107.487 272.098 107.294 271.663C106.28 268.911 105.314 266.207 104.445 263.454V263.406C100.003 249.403 97.4914 235.303 96.9603 221.251C96.9368 220.77 96.9105 220.287 96.8841 219.802C96.8019 218.289 96.7189 216.763 96.7189 215.264V215.215C96.7189 187.837 103.479 164.562 117.289 144.813C119.269 141.964 121.394 139.212 123.615 136.556C127.333 132.162 131.341 127.912 135.832 123.905C136.27 123.498 136.728 123.111 137.193 122.719C137.446 122.506 137.701 122.291 137.956 122.07C104.88 134.721 69.5816 156.498 43.41 193.969C21.4394 225.452 13.0857 257.756 9.85046 280.982C10.7679 284.121 11.7336 287.211 12.7959 290.35C12.7959 290.374 12.808 290.398 12.8201 290.423C12.8322 290.447 12.8442 290.471 12.8442 290.495C13.8583 293.489 14.9207 296.483 16.0313 299.476C16.0407 299.504 16.05 299.534 16.0597 299.565C16.1001 299.694 16.1465 299.842 16.2244 299.959C17.2867 302.808 18.4457 305.609 19.6529 308.458C19.7253 308.603 19.7856 308.748 19.8459 308.892C19.9062 309.037 19.9665 309.182 20.039 309.327C21.1496 311.983 22.3567 314.639 23.6122 317.246C23.8053 317.681 23.9985 318.115 24.2399 318.55C25.3988 321.012 26.606 323.427 27.8614 325.889C28.1512 326.469 28.4409 327.048 28.7789 327.676C29.9861 329.946 31.1933 332.215 32.4488 334.436L32.449 334.437C32.8352 335.161 33.2214 335.885 33.656 336.561C34.9114 338.782 36.2152 340.955 37.5672 343.128L38.871 345.301C40.6094 348.102 42.3959 350.854 44.2308 353.606C44.255 353.655 44.2792 353.691 44.3033 353.727C44.3275 353.763 44.3517 353.799 44.3758 353.848C67.32 387.665 106.783 430.333 164.715 483.952H295.773ZM503 7.33063C471.037 14.3235 442.076 26.273 416.379 43.1203C415.889 43.4524 415.404 43.7792 414.924 44.1026C413.939 44.7668 412.975 45.4163 412.033 46.0658C412.058 46.0899 412.082 46.102 412.106 46.1141C412.13 46.1262 412.154 46.1383 412.178 46.1624C408.171 48.9148 404.501 51.5705 401.121 54.0814C380.199 69.8043 369.944 81.9593 361.125 92.4117C359.788 93.9971 358.483 95.5433 357.179 97.0569L357.035 97.2018C350.178 105.217 344.866 113.571 340.762 122.07C338.734 126.222 337.044 130.375 335.595 134.576C335.584 134.565 335.571 134.554 335.556 134.543C335.505 134.506 335.439 134.469 335.402 134.431C319.805 179.435 335.547 225.114 348.826 239.552C360.704 252.541 374.659 259.833 387.069 262.971C387.286 263.02 387.504 263.056 387.721 263.092C387.938 263.128 388.156 263.164 388.373 263.213C389.918 263.599 391.463 263.889 392.96 264.13C393.54 264.227 394.119 264.323 394.65 264.372C396.582 264.613 398.513 264.806 400.3 264.855H400.445V264.903H400.686H401.072H401.459H401.7V264.855H401.845C403.632 264.806 405.563 264.661 407.494 264.372C407.567 264.36 407.638 264.348 407.709 264.336C408.207 264.252 408.677 264.173 409.185 264.13C410.682 263.889 412.227 263.599 413.772 263.213C413.989 263.164 414.207 263.128 414.424 263.092C414.641 263.056 414.858 263.02 415.076 262.971C427.485 259.784 441.392 252.493 453.319 239.552C466.55 225.114 482.291 179.435 466.743 134.431C466.719 134.455 466.682 134.48 466.646 134.504C466.61 134.528 466.574 134.552 466.55 134.576C453.416 144.958 439.895 158.14 426.23 174.027L423.236 177.89C417.731 184.988 410.633 196.77 407.784 212.511C409.378 222.893 409.04 232.406 407.832 240.47C406.239 250.9 403.245 258.915 401.217 263.647L401.072 263.358C397.306 254.521 390.546 234.868 394.94 210.387C396.292 202.661 398.562 195.852 401.072 190.01C405.032 180.883 409.716 174.027 412.951 169.874C412.878 169.874 412.818 169.886 412.758 169.898C412.698 169.91 412.637 169.922 412.565 169.922C429.031 150.221 445.352 134.19 461.383 122.021C463.846 120.138 466.308 118.352 468.771 116.613C469.35 116.251 469.93 115.901 470.509 115.551C471.089 115.201 471.668 114.851 472.248 114.489C482.013 108.391 492.264 103.304 503 99.2645V7.33063ZM8.40191 293.441C8.40191 293.392 8.40186 293.392 8.35357 293.344C8.40186 293.344 8.40191 293.392 8.40191 293.441ZM230.619 87.6892C217.388 87.6409 153.601 89.331 96.9603 125.788C75.8105 138.584 55.3853 156.064 38.6297 180.014C17.5282 210.242 9.02946 241.194 5.5045 264.13C5.37688 263.492 5.23994 262.845 5.10189 262.192C4.92656 261.363 4.74943 260.525 4.58733 259.688L3.86291 255.777C3.74219 255.076 3.62145 254.364 3.5007 253.652C3.37995 252.94 3.2592 252.228 3.13848 251.527C3.0902 251.383 3.04211 251.238 3.04211 251.093L2.46269 247.181L2.02797 243.995C1.9314 243.463 1.83489 242.884 1.7866 242.353C1.64525 241.081 1.50378 239.855 1.36242 238.63L1.35189 238.538C1.3036 237.886 1.24323 237.246 1.18286 236.607C1.12249 235.967 1.06213 235.327 1.01384 234.675C1.01384 234.279 0.973933 233.923 0.930323 233.535L0.917466 233.42C0.869179 232.816 0.820895 232.225 0.772611 231.633C0.724327 231.042 0.676043 230.45 0.627756 229.846C0.482894 227.915 0.386285 225.984 0.289711 224.052C0.265567 223.545 0.241388 223.05 0.217209 222.555C0.19303 222.06 0.168852 221.565 0.144708 221.058C0.0481338 218.209 0 215.36 0 212.463V212.27C0 208.504 0.0482281 204.737 0.241376 201.019C0.724247 190.541 1.93138 180.304 3.81457 170.405C4.10386 168.814 4.44135 167.223 4.77885 165.632L4.78037 165.625C8.25704 149.255 13.617 133.755 20.8601 119.172C21.0042 118.98 21.1002 118.788 21.1963 118.596L21.1978 118.593C25.2056 110.626 29.8414 102.948 34.9598 95.5118C37.0361 92.5181 39.1606 89.5241 41.4301 86.6269C46.452 80.1081 51.8602 73.8308 57.7995 67.795C60.3587 65.1875 63.0146 62.6283 65.7187 60.1173C68.4227 57.6064 71.1269 55.192 73.9275 52.8743C79.1425 48.4801 84.5505 44.3758 90.0552 40.5128C122.89 17.673 161.037 4.44232 203.916 0.965648C211.497 0.337916 219.223 -7.92816e-05 227.142 -7.92816e-05H227.384C288.757 -7.92816e-05 341.969 14.486 385.717 43.1685C386.203 43.4979 386.685 43.8222 387.161 44.143C388.15 44.81 389.117 45.462 390.063 46.1141C390.039 46.1382 390.015 46.1503 389.991 46.1624C389.966 46.1744 389.942 46.1865 389.918 46.2106C370.035 61.5686 359.751 73.7586 351.172 83.929L351.095 84.0195C349.791 85.613 348.488 87.1581 347.184 88.655L346.701 89.1861L346.556 89.3793C339.699 97.4432 334.195 105.99 329.849 114.682C329.849 114.633 329.801 114.633 329.801 114.633C319.129 107.97 307.878 102.513 296.048 98.3124C295.855 98.2159 295.71 98.1675 295.517 98.1192C291.799 96.7672 287.984 95.56 284.121 94.4977C283.855 94.4253 283.59 94.3649 283.324 94.3046C283.059 94.2443 282.793 94.1839 282.528 94.1115C279.003 93.194 275.429 92.2766 271.808 91.5523C271.085 91.3951 270.342 91.2789 269.605 91.1636C269.209 91.1018 268.815 91.0403 268.428 90.9728C265.337 90.3934 262.247 89.8622 259.06 89.4276C257.492 89.2088 255.896 89.0726 254.293 88.9358C253.774 88.8915 253.254 88.8471 252.734 88.7999C252.124 88.7363 251.517 88.6694 250.912 88.6027C249.218 88.4159 247.537 88.2305 245.829 88.1238C241.339 87.8341 236.8 87.6892 232.164 87.6892H232.116H230.619Z" fill="#E30613"/>
</svg>
