<svg width="1440" height="1055" viewBox="0 0 1440 1055" fill="none" xmlns="http://www.w3.org/2000/svg">
<path d="M-124 130.284C258.468 42.098 1328.8 -122.728 1545.61 217.7C1671.27 439.044 1041.66 225.21 1165 173C1283.45 122.859 1241.63 475.137 683.509 418.262C-109.58 337.443 -140.48 534.377 -72.5007 713.828C-4.52162 893.278 316.834 846.106 273.575 800.584C230.315 755.062 -165.199 804.542 33.5879 953.974C232.375 1103.41 1270.09 1068.11 1470.93 822.355" stroke="white" stroke-width="24"/>
<path d="M-124 130.284C258.468 42.098 1328.8 -122.728 1545.61 217.7C1671.27 439.044 1041.66 225.71 1165 173.5C1283.45 123.359 1241.63 475.137 683.509 418.262C-109.58 337.443 -140.48 534.377 -72.5007 713.828C-4.52162 893.278 316.834 846.106 273.575 800.584C230.315 755.062 -165.199 804.542 33.5879 953.974C232.375 1103.41 1270.09 1068.11 1470.93 822.355" stroke="#FF111F" stroke-width="14"/>
<path d="M-124 130.284C258.468 42.098 1328.8 -122.728 1545.61 217.7C1671.27 439.044 1041.16 225.71 1164.5 173.5C1282.95 123.359 1241.63 475.137 683.509 418.262C-109.58 337.443 -140.48 534.377 -72.5007 713.828C-4.52162 893.278 316.834 846.106 273.575 800.584C230.315 755.062 -165.199 804.542 33.5879 953.974C232.375 1103.41 1270.09 1068.11 1470.93 822.355" stroke="white" stroke-width="4"/>
</svg>
