<svg width="582" height="200" viewBox="0 0 582 200" fill="none" xmlns="http://www.w3.org/2000/svg">
<mask id="mask0_189_230" style="mask-type:alpha" maskUnits="userSpaceOnUse" x="0" y="0" width="582" height="200">
<rect width="582" height="200" rx="16" fill="white"/>
</mask>
<g mask="url(#mask0_189_230)">
<path d="M395.247 364.366C474.031 422.635 703.426 559.265 790.581 466.38C843.71 404.792 676.961 409.279 699.779 435.736C721.693 461.145 748.357 359.646 613.194 334.463C421.128 298.678 435.422 232.754 470.663 180.18C505.904 127.605 575.03 167.881 560.078 179.189C545.127 190.497 459.116 143.693 521.317 111.002C583.518 78.3103 819.474 170.621 839.138 265.545" stroke="white" stroke-width="24"/>
<path d="M395.247 364.366C474.031 422.635 703.426 559.265 790.581 466.38C843.71 404.792 676.961 409.279 699.779 435.736C721.693 461.145 748.357 359.646 613.194 334.463C421.128 298.678 435.422 232.754 470.663 180.18C505.904 127.605 575.03 167.881 560.078 179.189C545.127 190.497 459.116 143.693 521.317 111.002C583.518 78.3103 819.474 170.621 839.138 265.545" stroke="#00B8D0" stroke-width="14"/>
<path d="M395.247 364.366C474.031 422.635 703.426 559.265 790.581 466.38C843.71 404.792 676.961 409.279 699.779 435.736C721.693 461.145 748.357 359.646 613.194 334.463C421.128 298.678 435.422 232.754 470.663 180.18C505.904 127.605 575.03 167.881 560.078 179.189C545.127 190.497 459.116 143.693 521.317 111.002C583.518 78.3103 819.474 170.621 839.138 265.545" stroke="white" stroke-width="4"/>
</g>
</svg>
